<?xml version="1.0" encoding="iso-8859-1"?>
<!-- Uploaded to: SVG Repo, www.svgrepo.com, Generator: SVG Repo Mixer Tools -->
<svg height="800px" width="800px" version="1.1" id="Layer_1" xmlns="http://www.w3.org/2000/svg" xmlns:xlink="http://www.w3.org/1999/xlink" 
	 viewBox="0 0 511.999 511.999" xml:space="preserve">
<path style="fill:#92E03F;" d="M259.75,330.856L141.401,449.211c-5.175,5.169-11.325,9.12-17.996,11.677
	c-6.678,2.576-13.896,3.757-21.187,3.386c-14.604-0.759-28.845,4.705-39.191,15.05l-15.922,15.942
	c-4.208,4.19-9.711,6.289-15.22,6.289c-5.571,0.013-11.137-2.136-15.357-6.432c-8.337-8.493-7.89-22.268,0.528-30.698l15.538-15.541
	c5.171-5.17,9.121-11.32,11.679-17.997c2.6-6.726,3.768-13.994,3.373-21.351c-0.797-14.541,4.774-28.712,15.076-39.008
	l39.661-39.673H259.75V330.856z"/>
<path style="fill:#FFFFFF;" d="M228.543,204.693l78.693,78.681l-47.487,47.481H102.394L228.543,204.693z"/>
<g>
	<path style="fill:#3F5968;" d="M347.759,257.143c9.208,9.21,9.208,24.158,0,33.373c-4.624,4.604-10.653,6.917-16.69,6.917
		c-6.042,0-12.092-2.313-16.695-6.917l-7.136-7.142l-78.693-78.681l-7.142-7.148c-9.221-9.214-9.221-24.158,0-33.386
		c4.604-4.604,10.641-6.909,16.69-6.909c6.042,0,12.079,2.306,16.684,6.909L347.759,257.143z"/>
	<path style="fill:#3F5968;" d="M485.183,26.742c21.734,21.727,21.734,56.954,0,78.68l-141.84,141.84
		c-1.502,1.507-3.964,1.507-5.465,0l-73.21-73.209c-1.52-1.507-1.52-3.963,0-5.483l141.84-141.828
		C428.237,5.014,463.456,5.014,485.183,26.742L485.183,26.742z"/>
</g>
<path d="M511.93,66.082c0-17.651-6.876-34.246-19.359-46.727C480.088,6.873,463.495,0,445.846,0s-34.243,6.873-46.725,19.354
	L261.921,156.542c-6.402-6.279-14.849-9.739-23.829-9.739c-9.097,0-17.648,3.541-24.079,9.972
	c-6.432,6.435-9.973,14.988-9.973,24.082c0,8.984,3.462,17.432,9.74,23.828L95.133,323.342c-0.046,0.044-0.096,0.083-0.141,0.127
	l-39.657,39.67c-12.47,12.463-19.075,29.581-18.122,46.958c0.315,5.87-0.588,11.598-2.697,17.053
	c-2.076,5.419-5.208,10.245-9.311,14.346L9.661,457.041c-12.556,12.573-12.82,32.939-0.587,45.4
	c6.055,6.163,14.139,9.557,22.763,9.557v-10.39l0.047,10.39c8.524,0,16.547-3.315,22.612-9.353l15.918-15.937
	c7.777-7.777,18.118-12.061,29.116-12.061c0.711,0,1.433,0.02,2.157,0.057c8.714,0.44,17.362-0.941,25.456-4.065
	c8.164-3.129,15.445-7.854,21.644-14.044l118.348-118.355c0.001-0.001,0.002-0.002,0.003-0.003l40.1-40.094
	c6.405,6.277,14.85,9.735,23.829,9.735c9.065,0,17.611-3.538,24.079-9.979c13.189-13.197,13.261-34.61,0.23-47.9l137.193-137.19
	C505.054,100.328,511.93,83.733,511.93,66.082z M134.019,441.819c-4.111,4.105-8.939,7.239-14.372,9.321
	c-4.735,1.826-9.716,2.753-14.805,2.753c-0.697,0-1.395-0.018-2.081-0.052c-1.071-0.056-2.158-0.085-3.23-0.085
	c-16.579,0-32.167,6.457-43.894,18.185l-15.903,15.92c-2.102,2.092-4.89,3.245-7.873,3.245l-0.024,10.339v-10.339
	c-2.972,0-5.763-1.174-7.856-3.303c-4.24-4.32-4.031-11.496,0.46-15.993l15.538-15.539c6.191-6.189,10.916-13.472,14.037-21.618
	c3.169-8.2,4.536-16.84,4.059-25.689c-0.628-11.464,3.757-22.779,12.033-31.051l36.601-36.613h127.821L134.019,441.819z
	 M255.423,320.41H127.611l100.933-100.944l63.917,63.909L255.423,320.41z M340.387,283.115c-2.507,2.498-5.817,3.872-9.318,3.872
	c-3.516,0-6.822-1.371-9.306-3.854l-7.087-7.087c-0.019-0.019-0.034-0.04-0.053-0.059l-66.43-66.42l-12.259-12.258l-7.148-7.155
	c-2.485-2.482-3.853-5.784-3.853-9.297c0-3.516,1.371-6.824,3.856-9.311c2.482-2.483,5.786-3.851,9.303-3.851
	c3.512,0,6.814,1.368,9.296,3.851l9.889,9.889c0.001,0.001,0.003,0.003,0.004,0.004l22.381,22.381l60.708,60.709
	C345.497,269.657,345.497,278.002,340.387,283.115z M477.796,98.035L340.61,235.222l-10.042-10.042L276.7,171.311L413.895,34.128
	c8.536-8.536,19.883-13.236,31.951-13.236s23.416,4.7,31.951,13.237c8.537,8.535,13.239,19.883,13.239,31.952
	S486.335,89.5,477.796,98.035z"/>
<path d="M443.453,79.794l-69.035,69.036c-4.079,4.079-4.079,10.694,0,14.774c2.04,2.039,4.713,3.06,7.387,3.06
	c2.673,0,5.347-1.021,7.387-3.06l69.035-69.036c4.079-4.079,4.079-10.694,0-14.774C454.146,75.714,447.532,75.714,443.453,79.794z"
	/>
<path d="M352.156,171.09l-16.764,16.765c-4.079,4.08-4.079,10.694,0,14.774c2.04,2.039,4.713,3.06,7.387,3.06
	c2.673,0,5.348-1.021,7.387-3.06l16.764-16.765c4.079-4.08,4.079-10.694,0-14.774C362.849,167.012,356.236,167.012,352.156,171.09z"
	/>
</svg>